<?xml version="1.0" encoding="utf-8"?>
<!-- Generator: Adobe Illustrator 28.1.0, SVG Export Plug-In . SVG Version: 6.00 Build 0)  -->
<svg version="1.1" id="Layer_1" xmlns="http://www.w3.org/2000/svg" xmlns:xlink="http://www.w3.org/1999/xlink" x="0px" y="0px"
	 viewBox="0 0 300 250" style="enable-background:new 0 0 300 250;" xml:space="preserve">
<style type="text/css">
	.st0{fill:#FFFFFF;}
</style>
<g>
	<path class="st0" d="M284.8,15.2h-39v39h39V15.2z M284.4,53.8h-38.2V15.6h38.2V53.8z"/>
	<path class="st0" d="M255.5,45.8l0.3-1c0.1-0.2,0.1-0.4,0.1-0.6c0,0.2,0.1,0.4,0.1,0.6l0.3,1H255.5L255.5,45.8z M255.2,42.9
		l-1.8,4.7h1.6l0.2-0.6h1.6l0.2,0.6h1.6l-1.7-4.7H255.2L255.2,42.9z"/>
	<polygon class="st0" points="260.4,42.9 258.9,42.9 258.9,47.5 262.4,47.5 262.4,46.2 260.4,46.2 	"/>
	<path class="st0" d="M264.8,46.3h-0.4v-2.1h0.4c0.5,0,0.9,0.3,0.9,1S265.4,46.3,264.8,46.3 M264.9,42.9h-2v4.7h2
		c1.7,0,2.4-1,2.4-2.3S266.5,42.9,264.9,42.9"/>
	<path class="st0" d="M269.3,45.8l0.3-1c0-0.2,0.1-0.4,0.1-0.6c0,0.2,0.1,0.4,0.1,0.6l0.3,1H269.3L269.3,45.8z M268.9,42.9l-1.8,4.7
		h1.6l0.2-0.6h1.6l0.2,0.6h1.6l-1.7-4.7H268.9z"/>
	<path class="st0" d="M274.8,45h-0.6v-0.9h0.6c0.3,0,0.5,0.2,0.5,0.4S275.1,45,274.8,45 M276,45.9c0.5-0.2,0.8-0.7,0.8-1.4
		c0-1.3-1-1.7-2-1.7h-2.2v4.7h1.5v-1.4h0.4l1,1.4h1.7L276,45.9L276,45.9z"/>
	<rect x="272.4" y="21.4" class="st0" width="4.7" height="8.7"/>
	<path class="st0" d="M274.1,36.9c0,0.8-0.7,0.8-1.1,0.8h-2.2v3.8h6.3V34c0,0-0.9-1.8-3-3.2l-2.8,2.8
		C271.3,33.5,274.1,35,274.1,36.9"/>
	<path class="st0" d="M259.9,27.7c0-2.5,1.6-4.3,1.6-4.3l3.2,1.8c-1.5,1.9-1.2,3.9,0.6,3.9s1.7-1.6,1.7-1.8v-5.9h3.8v6.2
		c0,2.7-2.2,5.5-5.5,5.5C262.4,33.1,259.9,30.6,259.9,27.7"/>
	<path class="st0" d="M260.1,31.4h-1.6v1.8c0,4.2-2.3,4.6-3.6,4.5h-1.2v3.6h6.2c2.1-1.5,3.3-4.1,3.4-7.7
		C261.9,33.3,260.8,32.5,260.1,31.4"/>
	<path class="st0" d="M265.4,34.2c-0.3,0-0.5,0-0.8,0v7.3h4.7v-8.6C268.2,33.7,266.9,34.2,265.4,34.2"/>
</g>
</svg>
